<svg width="12" height="12" viewBox="0 0 12 12" fill="none" xmlns="http://www.w3.org/2000/svg">
<rect width="12" height="12" fill="#F5F5F5"/>
<rect width="1045" height="1171" transform="translate(-212 -426)" fill="white"/>
<rect x="-169" y="-20" width="959" height="50" fill="white"/>
<rect x="-9.5" y="-5.5" width="44" height="23" rx="11.5" fill="#ECECEC" stroke="#ECECEC"/>
<path d="M6.87492 2.00402V4.44166C6.87492 4.49688 6.91969 4.54166 6.97492 4.54166H9.22274C10.1742 4.54166 10.8852 5.41607 10.6912 6.34753L9.9574 9.87057C9.86081 10.3343 9.45211 10.6667 8.97841 10.6667H2.83325C2.00482 10.6667 1.33325 9.99508 1.33325 9.16666V6.87499C1.33325 6.06957 1.98617 5.41666 2.79159 5.41666H3.66659L5.62186 1.22679C5.67456 1.11385 5.78792 1.04166 5.91255 1.04166C6.44405 1.04166 6.87492 1.47252 6.87492 2.00402Z" stroke="#AEAEAE"/>
<path d="M3.6665 5.125L3.6665 10.6667" stroke="#AEAEAE"/>
</svg>
