<svg width="14" height="14" viewBox="0 0 14 14" fill="none" xmlns="http://www.w3.org/2000/svg">
<rect width="14" height="14" fill="#F5F5F5"/>
<rect width="1045" height="1171" transform="translate(-54 -1074)" fill="white"/>
<rect x="-11" y="-11" width="959" height="39" rx="4" fill="#F8F9FB"/>
<path fill-rule="evenodd" clip-rule="evenodd" d="M7.00004 13C10.3137 13 13 10.3137 13 7.00001C13 3.6863 10.3137 1.00001 7.00004 1.00001C3.68633 1.00001 1.00004 3.6863 1.00004 7.00001C1.00004 10.3137 3.68633 13 7.00004 13ZM7.00004 13.6667C10.6819 13.6667 13.6667 10.6819 13.6667 7.00001C13.6667 3.31811 10.6819 0.333344 7.00004 0.333344C3.31814 0.333344 0.333374 3.31811 0.333374 7.00001C0.333374 10.6819 3.31814 13.6667 7.00004 13.6667Z" fill="#F93737"/>
<path d="M6.6335 8.66833L6.0995 3.32838C6.04623 2.79563 6.46459 2.33334 7 2.33334C7.53541 2.33334 7.95377 2.79563 7.9005 3.32838L7.3665 8.66833C7.34767 8.85662 7.18923 9.00001 7 9.00001C6.81077 9.00001 6.65233 8.85662 6.6335 8.66833Z" fill="#F93737"/>
<circle cx="7.00004" cy="10.3334" r="0.666667" fill="#F93737"/>
</svg>
