<svg width="60" height="56" viewBox="0 0 60 56" fill="none" xmlns="http://www.w3.org/2000/svg">
<path d="M29.5277 0.432364C29.6833 -0.0154163 30.3166 -0.0154171 30.4722 0.432363L37.305 20.0894C37.3737 20.2869 37.558 20.4208 37.7671 20.4251L58.5735 20.8491C59.0474 20.8588 59.2431 21.461 58.8653 21.7474L42.2819 34.3201C42.1152 34.4465 42.0448 34.6632 42.1054 34.8633L48.1316 54.7824C48.2689 55.2361 47.7566 55.6084 47.3675 55.3376L30.2855 43.4509C30.1139 43.3315 29.886 43.3315 29.7144 43.4509L12.6324 55.3376C12.2433 55.6084 11.731 55.2361 11.8683 54.7824L17.8945 34.8633C17.9551 34.6632 17.8847 34.4465 17.718 34.3201L1.13457 21.7474C0.756799 21.461 0.952489 20.8588 1.42645 20.8491L22.2328 20.4251C22.4419 20.4208 22.6262 20.2869 22.6949 20.0894L29.5277 0.432364Z" fill="#D6D7D9"/>
</svg>
